<?xml version="1.0" encoding="UTF-8"?>
<svg width="512" height="512" viewBox="0 0 512 512" xmlns="http://www.w3.org/2000/svg">
  <defs>
    <linearGradient id="gradient" x1="0%" y1="0%" x2="100%" y2="100%">
      <stop offset="0%" style="stop-color:#FE6B8B"/>
      <stop offset="100%" style="stop-color:#FF8E53"/>
    </linearGradient>
  </defs>
  <g fill="none" fill-rule="evenodd">
    <circle fill="url(#gradient)" cx="256" cy="256" r="256"/>
    <path d="M346.4 280c-12.8-25.6-38.4-41.6-64-41.6-12.8 0-25.6 3.2-38.4 9.6-12.8-6.4-25.6-9.6-38.4-9.6-25.6 0-51.2 16-64 41.6-3.2 6.4-3.2 12.8 0 19.2 12.8 25.6 38.4 41.6 64 41.6 12.8 0 25.6-3.2 38.4-9.6 12.8 6.4 25.6 9.6 38.4 9.6 25.6 0 51.2-16 64-41.6 3.2-6.4 3.2-12.8 0-19.2z" fill="#FFF"/>
  </g>
</svg>
